<?xml version="1.0" encoding="UTF-8"?>
<svg version="1.1" xmlns="http://www.w3.org/2000/svg" width="1536" height="1024">
<path d="M0 0 C506.88 0 1013.76 0 1536 0 C1536 337.92 1536 675.84 1536 1024 C1029.12 1024 522.24 1024 0 1024 C0 686.08 0 348.16 0 0 Z " fill="#FEFEFE" transform="translate(0,0)"/>
<path d="M0 0 C2.47506787 2.22453744 4.76273453 4.53964539 7 7 C7.825 7.804375 8.65 8.60875 9.5 9.4375 C31.94374172 32.44233526 40.44281605 60.84423254 40.15234375 92.35546875 C40.02553817 98.72194748 39.40717624 104.78430154 38 111 C37.74347656 112.17175781 37.48695313 113.34351563 37.22265625 114.55078125 C33.49707564 129.94878179 26.91312531 142.98453051 18 156 C16.66209744 157.9969873 15.33127352 159.99858202 14 162 C16.84087268 164.86590749 19.68526136 167.72827697 22.53271484 170.58764648 C23.49751459 171.55742273 24.46140895 172.5281007 25.42431641 173.49975586 C31.96036131 180.1184887 31.96036131 180.1184887 38.8515625 186.359375 C44.3736888 191.09091641 49.46335069 196.27733286 54.60205078 201.41674805 C56.38686598 203.19935127 58.17957116 204.97376695 59.97265625 206.74804688 C61.11507134 207.88753178 62.25701572 209.02748885 63.3984375 210.16796875 C63.93173676 210.69408249 64.46503601 211.22019623 65.01449585 211.76225281 C68.97341353 215.74579835 71.27545349 218.70084886 71.375 224.375 C71.2623312 228.94184189 70.06641787 231.51920134 67 235 C63.29637552 238.26790395 59.45267478 238.74541158 54.64770508 238.48999023 C51.72910476 237.94986752 50.72932568 237.35589878 48.5859375 235.36328125 C47.90072021 234.7280957 47.21550293 234.09291016 46.50952148 233.43847656 C41.43130763 228.50402769 36.38956971 223.53630316 31.39086914 218.52124023 C29.4420313 216.56704376 27.48790728 214.61824853 25.53320312 212.66992188 C20.01463199 207.15425703 14.52965254 201.66157878 9.47045898 195.71508789 C6.86640863 192.67782179 4.10394261 189.80179164 1.3125 186.9375 C0.75755859 186.34517578 0.20261719 185.75285156 -0.36914062 185.14257812 C-2.16149403 183.25252303 -2.16149403 183.25252303 -5 181 C-8.55774273 181.45151391 -10.88366739 183.11845723 -13.8125 185.125 C-28.59708452 194.65588143 -46.21850184 201.59472369 -64 202 C-64.63776367 202.02964844 -65.27552734 202.05929687 -65.93261719 202.08984375 C-83.33952433 202.86797997 -100.06736342 200.28626673 -116 193 C-116.62326172 192.72172363 -117.24652344 192.44344727 -117.88867188 192.15673828 C-145.82957741 179.55607137 -166.4997523 156.76667981 -177.50390625 128.2109375 C-178.81210762 124.50111273 -179.94889694 120.79034133 -181 117 C-181.3196875 115.8759375 -181.639375 114.751875 -181.96875 113.59375 C-186.35221309 94.92344427 -186.60582618 71.11644526 -180 53 C-179.72623535 52.2383252 -179.4524707 51.47665039 -179.17041016 50.69189453 C-173.33796947 34.90795072 -165.15763839 21.62786872 -154 9 C-153.38898438 8.30519531 -152.77796875 7.61039062 -152.1484375 6.89453125 C-112.43263225 -35.44082712 -43.74054175 -35.59452993 0 0 Z " fill="#FCFDFD" transform="translate(491,394)"/>
<path d="M0 0 C2.47506787 2.22453744 4.76273453 4.53964539 7 7 C7.825 7.804375 8.65 8.60875 9.5 9.4375 C31.94374172 32.44233526 40.44281605 60.84423254 40.15234375 92.35546875 C40.02553817 98.72194748 39.40717624 104.78430154 38 111 C37.74347656 112.17175781 37.48695313 113.34351563 37.22265625 114.55078125 C33.49707564 129.94878179 26.91312531 142.98453051 18 156 C16.66209744 157.9969873 15.33127352 159.99858202 14 162 C16.84087268 164.86590749 19.68526136 167.72827697 22.53271484 170.58764648 C23.49751459 171.55742273 24.46140895 172.5281007 25.42431641 173.49975586 C31.96036131 180.1184887 31.96036131 180.1184887 38.8515625 186.359375 C44.3736888 191.09091641 49.46335069 196.27733286 54.60205078 201.41674805 C56.38686598 203.19935127 58.17957116 204.97376695 59.97265625 206.74804688 C61.11507134 207.88753178 62.25701572 209.02748885 63.3984375 210.16796875 C63.93173676 210.69408249 64.46503601 211.22019623 65.01449585 211.76225281 C68.97341353 215.74579835 71.27545349 218.70084886 71.375 224.375 C71.2623312 228.94184189 70.06641787 231.51920134 67 235 C63.29637552 238.26790395 59.45267478 238.74541158 54.64770508 238.48999023 C51.72910476 237.94986752 50.72932568 237.35589878 48.5859375 235.36328125 C47.90072021 234.7280957 47.21550293 234.09291016 46.50952148 233.43847656 C41.43130763 228.50402769 36.38956971 223.53630316 31.39086914 218.52124023 C29.4420313 216.56704376 27.48790728 214.61824853 25.53320312 212.66992188 C20.01463199 207.15425703 14.52965254 201.66157878 9.47045898 195.71508789 C6.86640863 192.67782179 4.10394261 189.80179164 1.3125 186.9375 C0.75755859 186.34517578 0.20261719 185.75285156 -0.36914062 185.14257812 C-2.16149403 183.25252303 -2.16149403 183.25252303 -5 181 C-8.55774273 181.45151391 -10.88366739 183.11845723 -13.8125 185.125 C-28.59708452 194.65588143 -46.21850184 201.59472369 -64 202 C-64.63776367 202.02964844 -65.27552734 202.05929687 -65.93261719 202.08984375 C-83.33952433 202.86797997 -100.06736342 200.28626673 -116 193 C-116.62326172 192.72172363 -117.24652344 192.44344727 -117.88867188 192.15673828 C-145.82957741 179.55607137 -166.4997523 156.76667981 -177.50390625 128.2109375 C-178.81210762 124.50111273 -179.94889694 120.79034133 -181 117 C-181.3196875 115.8759375 -181.639375 114.751875 -181.96875 113.59375 C-186.35221309 94.92344427 -186.60582618 71.11644526 -180 53 C-179.72623535 52.2383252 -179.4524707 51.47665039 -179.17041016 50.69189453 C-173.33796947 34.90795072 -165.15763839 21.62786872 -154 9 C-153.38898438 8.30519531 -152.77796875 7.61039062 -152.1484375 6.89453125 C-112.43263225 -35.44082712 -43.74054175 -35.59452993 0 0 Z M-139 26.6953125 C-156.78163963 47.18587379 -162.45199416 70.13882603 -161.22314453 96.87304688 C-159.62672624 119.24386249 -148.15680561 140.73830828 -132 156 C-110.66288639 173.97569755 -86.41493997 179.53675137 -59 178 C-37.18544704 175.61715289 -17.05487991 162.23180116 -3 146 C12.75787716 125.67687265 18.47701268 101.389795 17 76 C14.67936433 57.80036908 6.7057743 41.88579705 -5 28 C-5.9590625 26.75283203 -5.9590625 26.75283203 -6.9375 25.48046875 C-16.92339453 13.47091757 -32.41345075 5.74242488 -47 1 C-47.94359375 0.6803125 -48.8871875 0.360625 -49.859375 0.03125 C-81.94260484 -9.1353871 -116.43402213 3.31040801 -139 26.6953125 Z " fill="#0A2546" transform="translate(491,394)"/>
<path d="M0 0 C7.48998326 5.27179591 13.30504045 12.16968171 16.71875 20.6796875 C17.07582031 21.54207031 17.43289063 22.40445312 17.80078125 23.29296875 C22.06921333 39.0407586 18.07474406 55.49118907 10.25 69.32421875 C8.89285282 71.41187117 7.52036445 73.04141868 5.78125 74.8046875 C3.48910869 77.99979357 3.46655725 78.63717028 3.84375 82.3671875 C4.27920047 84.93989997 4.89000531 87.19345342 5.71875 89.6796875 C8.31990337 90.73353109 8.31990337 90.73353109 11.71875 91.6796875 C15.03205604 92.874271 18.31174889 94.1519991 21.59375 95.4296875 C22.45355469 95.75195312 23.31335938 96.07421875 24.19921875 96.40625 C31.13158044 99.12028538 37.50543174 102.35971011 41.71875 108.6796875 C42.37463925 111.81338059 42.27779299 113.77529713 40.57421875 116.53125 C29.14844299 130.48682039 11.26671117 139.48414041 -6.28125 142.6796875 C-7.9828125 143.02 -7.9828125 143.02 -9.71875 143.3671875 C-32.78179062 145.39026124 -54.07944151 139.98101561 -72.16796875 125.34375 C-76.26872949 121.73986976 -80.11076857 118.14978068 -83.28125 113.6796875 C-83.47289934 110.16611618 -83.23156962 107.93155085 -81.0625 105.07421875 C-73.44113637 97.80777156 -62.067197 95.16295178 -52.3125 91.98828125 C-48.50088124 90.3428015 -46.14495463 88.40709676 -44.28125 84.6796875 C-43.50102845 80.60519718 -43.62631675 78.70500776 -45.890625 75.16015625 C-47.31126726 73.2935605 -48.74005039 71.43314009 -50.17578125 69.578125 C-59.40552077 56.87224981 -60.57001028 41.88061505 -59.28125 26.6796875 C-57.03354838 15.36455318 -49.59403282 6.22795608 -40.28125 -0.3203125 C-27.1209102 -7.36988492 -13.0338935 -7.54358904 0 0 Z " fill="#092647" transform="translate(439.28125,421.3203125)"/>
<path d="M0 0 C59.8249453 0 59.8249453 0 69.82421875 9.78515625 C75.80246524 17.11867272 78.7147289 25.87076801 78.32421875 35.296875 C77.13556974 45.2070571 73.39137741 52.26910819 65.78125 58.703125 C63.93292479 60.04883546 62.07013758 61.03756762 60 62 C61.51403064 67.24533019 63.87847992 71.66497766 66.5625 76.375 C66.99997559 77.15359375 67.43745117 77.9321875 67.88818359 78.734375 C70.12998374 82.71979747 72.3943021 86.69228244 74.66015625 90.6640625 C75.07515381 91.39447754 75.49015137 92.12489258 75.91772461 92.87744141 C76.70987785 94.27015734 77.50613443 95.66054903 78.30688477 97.04833984 C81 101.77702731 81 101.77702731 81 104 C73.41 104 65.82 104 58 104 C48.09478477 85.29014901 48.09478477 85.29014901 43.375 75.9375 C42.86163086 74.93009766 42.86163086 74.93009766 42.33789062 73.90234375 C40 69.23628346 40 69.23628346 40 67 C33.4 67 26.8 67 20 67 C20 79.21 20 91.42 20 104 C13.4 104 6.8 104 0 104 C0 69.68 0 35.36 0 0 Z " fill="#0A2545" transform="translate(574,445)"/>
<path d="M0 0 C56.24324324 0 56.24324324 0 66.5625 9.3125 C74.09945777 17.62247908 77.66792062 25.78413654 77.28125 37.20703125 C76.23319998 47.61475017 72.52586401 56.58023441 64.3125 63.3125 C54.57220117 69.76065974 45.27571486 70.54525176 33.8125 70.25 C29.254375 70.1675 24.69625 70.085 20 70 C20 81.22 20 92.44 20 104 C13.4 104 6.8 104 0 104 C0 69.68 0 35.36 0 0 Z " fill="#092445" transform="translate(1047,445)"/>
<path d="M0 0 C7.99546979 6.09654571 12.7207137 13.50814399 14.875 23.4296875 C15.86216409 42.75532288 15.86216409 42.75532288 11.875 51.4296875 C11.30652344 52.68652344 11.30652344 52.68652344 10.7265625 53.96875 C6.35658914 62.32979729 -0.79682449 68.11140475 -9.625 71.4296875 C-19.36839487 73.81869297 -32.80097022 74.44146158 -41.92578125 69.87109375 C-51.83969582 63.37334157 -57.38478554 55.65033089 -61.125 44.4296875 C-62.39196067 29.57417274 -62.07430164 16.62812256 -52.5625 4.5546875 C-39.1784631 -9.4666845 -15.71676925 -10.71021776 0 0 Z " fill="#0A2445" transform="translate(1239.125,477.5703125)"/>
<path d="M0 0 C8.49641006 6.00249977 13.48108113 12.92432454 16 23 C16 28.61 16 34.22 16 40 C-1.49 40 -18.98 40 -37 40 C-34.35269157 51.68383574 -34.35269157 51.68383574 -27 58 C-21.60080143 59.79973286 -16.06442735 59.70112627 -10.6875 57.875 C-7.79451211 56.10078765 -7.79451211 56.10078765 -5.9453125 52.90625 C-4.27381496 50.8533808 -3.42715015 50.09543173 -0.81665039 49.51220703 C1.74997312 49.40985779 4.24835335 49.475855 6.8125 49.625 C7.69615234 49.65207031 8.57980469 49.67914062 9.49023438 49.70703125 C11.66121114 49.77744131 13.83092529 49.88505394 16 50 C14.83535858 58.64286528 10.69470737 64.03453101 4.05078125 69.52734375 C-5.37012812 76.29245391 -17.88111149 76.08499774 -29 75 C-38.70334825 72.60258062 -45.80760056 67.6713406 -51.25 59.375 C-57.80414706 47.63361355 -58.96728 34.08363488 -55.375 21.1875 C-51.74907913 10.76614701 -46.38541295 3.92502907 -36.640625 -1.25390625 C-25.54820236 -6.07742943 -10.57846664 -6.14180145 0 0 Z " fill="#0A2344" transform="translate(716,475)"/>
<path d="M0 0 C6.27 0 12.54 0 19 0 C19.01981934 1.48846436 19.03963867 2.97692871 19.06005859 4.51049805 C19.13616862 10.03638539 19.22487818 15.56201127 19.31738281 21.08764648 C19.35565015 23.47854447 19.39050693 25.86949959 19.421875 28.26049805 C19.46757372 31.69861256 19.52556122 35.13633452 19.5859375 38.57421875 C19.59748871 39.64210129 19.60903992 40.70998383 19.62094116 41.81022644 C19.64081085 42.81088638 19.66068054 43.81154633 19.68115234 44.8425293 C19.69447601 45.71967087 19.70779968 46.59681244 19.7215271 47.50053406 C20.21119468 51.89560248 21.29835306 54.38188245 24.625 57.3125 C28.5933375 59.29666875 31.69107034 59.80540741 36 59 C40.60119711 57.38670012 44.63708027 55.44784891 47 51 C47.89813386 48.03587852 48.14717333 45.32164569 48.20532227 42.23144531 C48.22526749 41.29077209 48.24521271 40.35009888 48.26576233 39.38092041 C48.28247482 38.37349792 48.29918732 37.36607544 48.31640625 36.328125 C48.33718735 35.29057068 48.35796844 34.25301636 48.37937927 33.184021 C48.44471408 29.87274742 48.50368517 26.56139518 48.5625 23.25 C48.60570049 21.00389815 48.64931527 18.75780422 48.69335938 16.51171875 C48.80037907 11.00789292 48.90169192 5.50398805 49 0 C55.27 0 61.54 0 68 0 C68 25.08 68 50.16 68 76 C61.73 76 55.46 76 49 76 C48.505 72.04 48.505 72.04 48 68 C47.5875 68.39832031 47.175 68.79664063 46.75 69.20703125 C39.3661744 75.98103196 33.13015575 77.56618096 23.11328125 77.27734375 C15.88925801 76.63379839 11.3777751 73.88815205 5.859375 69.3046875 C-0.28656836 61.68681653 -0.55072837 53.9119865 -0.390625 44.43359375 C-0.38496521 43.15895767 -0.37930542 41.88432159 -0.37347412 40.57106018 C-0.35497782 37.21203578 -0.31915909 33.85413662 -0.2746582 30.49542236 C-0.23345023 27.05629097 -0.21540916 23.61704246 -0.1953125 20.17773438 C-0.15136541 13.45147689 -0.08239796 6.7258919 0 0 Z " fill="#092444" transform="translate(876,473)"/>
<path d="M0 0 C5.90173739 4.89795828 10.2060645 9.94355103 12.6875 17.25 C12.6875 18.57 12.6875 19.89 12.6875 21.25 C6.0875 21.25 -0.5125 21.25 -7.3125 21.25 C-8.6325 18.94 -9.9525 16.63 -11.3125 14.25 C-15.02398049 11.45248152 -19.39434186 11.01370882 -23.9375 11.3125 C-28.21808485 12.01979113 -31.04759084 13.28880332 -34.3125 16.25 C-38.13419575 21.89464546 -38.94153294 27.05104004 -38.8125 33.75 C-38.82796875 34.55308594 -38.8434375 35.35617187 -38.859375 36.18359375 C-38.82214376 41.92651307 -37.63348524 46.50022693 -34.3125 51.25 C-29.07434149 55.41914657 -24.98924578 56.79727424 -18.3125 56.25 C-15.3476038 55.29796911 -12.73470687 54.2193595 -10.3125 52.25 C-9.3225 50.27 -8.3325 48.29 -7.3125 46.25 C-0.3825 46.25 6.5475 46.25 13.6875 46.25 C9.95225505 57.45573486 6.42158063 64.80038983 -4.3125 70.25 C-10.14049627 72.97283594 -15.28218825 73.76754219 -21.6875 73.6875 C-22.9398645 73.67831543 -22.9398645 73.67831543 -24.2175293 73.66894531 C-30.58156147 73.50768926 -35.75179332 72.48716596 -41.3125 69.25 C-42.34375 68.693125 -43.375 68.13625 -44.4375 67.5625 C-52.24877147 61.27952077 -56.61956027 54.91111147 -59.3125 45.25 C-59.50328125 44.63769531 -59.6940625 44.02539062 -59.890625 43.39453125 C-62.29536967 31.17041251 -59.99883622 19.08787986 -53.6875 8.4375 C-48.96782534 1.88701955 -41.76371627 -3.09570777 -33.984375 -5.31640625 C-22.58020577 -7.16708284 -9.70507529 -6.83558975 0 0 Z " fill="#0B2445" transform="translate(800.3125,476.75)"/>
<path d="M0 0 C6.27 0 12.54 0 19 0 C19 6.6 19 13.2 19 20 C24.61 20 30.22 20 36 20 C36 25.28 36 30.56 36 36 C30.39 36 24.78 36 19 36 C19.04413925 41.62394866 19.11395789 47.24677316 19.20751953 52.87011719 C19.23573286 54.78278656 19.25694561 56.6955726 19.27099609 58.60839844 C19.29242081 61.35933173 19.3390674 64.10886175 19.390625 66.859375 C19.39185364 67.71368103 19.39308228 68.56798706 19.39434814 69.44818115 C19.51379698 74.32974458 19.51379698 74.32974458 21.8359375 78.546875 C24.88377488 80.59343729 27.12061223 80.39517551 30.75 80.25 C32.8125 80.1675 34.875 80.085 37 80 C37 85.61 37 91.22 37 97 C28.52182211 99.11954447 18.6433262 99.4185218 10.79296875 95.19140625 C5.37214759 91.58933554 2.17266454 87.05555666 0 81 C-0.50634678 77.44370639 -0.46913503 73.96118493 -0.390625 70.375 C-0.38496521 69.38749756 -0.37930542 68.39999512 -0.37347412 67.38256836 C-0.35123369 64.25453482 -0.30106027 61.12768239 -0.25 58 C-0.22991907 55.86850622 -0.2116711 53.73699434 -0.1953125 51.60546875 C-0.15140929 46.40319658 -0.08246753 41.20179796 0 36 C-3.96 36 -7.92 36 -12 36 C-12 31.05 -12 26.1 -12 21 C-8.04 21 -4.08 21 0 21 C0 14.07 0 7.14 0 0 Z " fill="#092344" transform="translate(996,452)"/>
<path d="M0 0 C0 5.94 0 11.88 0 18 C-3.279375 18.37125 -3.279375 18.37125 -6.625 18.75 C-12.19110123 19.54837008 -15.89610872 20.12410268 -20 24 C-21.89740903 27.07725096 -22.26446492 29.4546845 -22.31884766 33.04394531 C-22.33871735 34.04468079 -22.35858704 35.04541626 -22.37905884 36.07647705 C-22.39061005 37.14952087 -22.40216125 38.2225647 -22.4140625 39.328125 C-22.43342865 40.43226746 -22.4527948 41.53640991 -22.4727478 42.67401123 C-22.53250892 46.19926233 -22.57891564 49.72454615 -22.625 53.25 C-22.66318292 55.64063921 -22.70223483 58.03126471 -22.7421875 60.421875 C-22.83820784 66.2811386 -22.92225215 72.1404666 -23 78 C-29.6 78 -36.2 78 -43 78 C-43 52.92 -43 27.84 -43 2 C-36.73 2 -30.46 2 -24 2 C-23.67 4.64 -23.34 7.28 -23 10 C-22.34 9.278125 -21.68 8.55625 -21 7.8125 C-14.33649165 1.27964868 -9.37237191 -0.65085916 0 0 Z " fill="#0D2748" transform="translate(1175,471)"/>
<path d="M0 0 C0 5.94 0 11.88 0 18 C-2.475 18.12375 -2.475 18.12375 -5 18.25 C-11.65959081 18.87567584 -16.60939857 20.25045618 -21.0715332 25.38256836 C-24.04106382 29.96171192 -23.60313236 35.01619671 -23.609375 40.3046875 C-23.62591125 41.38380402 -23.64244751 42.46292053 -23.65948486 43.57473755 C-23.70791859 47.00821654 -23.72932636 50.44125272 -23.75 53.875 C-23.77816342 56.20835555 -23.80809136 58.54169052 -23.83984375 60.875 C-23.9136769 66.58329689 -23.96328027 72.29134861 -24 78 C-30.27 78 -36.54 78 -43 78 C-43 52.92 -43 27.84 -43 2 C-37.06 2 -31.12 2 -25 2 C-24.67 4.97 -24.34 7.94 -24 11 C-23.175 9.9275 -22.35 8.855 -21.5 7.75 C-15.24718251 0.54757238 -9.28833938 -0.51601885 0 0 Z " fill="#092342" transform="translate(867,471)"/>
<path d="M0 0 C6.27 0 12.54 0 19 0 C19 25.08 19 50.16 19 76 C12.73 76 6.46 76 0 76 C0 50.92 0 25.84 0 0 Z " fill="#092343" transform="translate(957,473)"/>
<path d="M0 0 C4.05935257 2.25117771 6.52423639 6.39309881 8.21484375 10.62890625 C10.08201229 18.74703034 10.24202125 29.64994231 5.75390625 36.97265625 C1.95964345 41.14634533 -1.68231234 44.59260264 -7.48046875 45.2109375 C-13.70158697 45.39447981 -17.24947532 44.77008626 -22.24609375 40.97265625 C-28.6228462 33.21714651 -29.15640345 24.67494444 -28.24609375 14.97265625 C-26.61726913 7.85264444 -23.47040478 2.88631817 -17.24609375 -1.02734375 C-11.25576714 -3.02411929 -5.73196734 -2.4116888 0 0 Z " fill="#FBFBFC" transform="translate(1225.24609375,489.02734375)"/>
<path d="M0 0 C3.63 -0.0825 7.26 -0.165 11 -0.25 C12.12792969 -0.28641602 13.25585938 -0.32283203 14.41796875 -0.36035156 C20.77343826 -0.42982249 25.77419571 0.16747304 31 4 C35.44745246 9.22575665 35.62338832 14.08288005 35.375 20.8359375 C34.84110273 25.34069575 33.87035484 28.48222289 31 32 C24.88815917 36.67214168 18.37924871 36.48824432 11 36.25 C5.555 36.12625 5.555 36.12625 0 36 C0 24.12 0 12.24 0 0 Z " fill="#FDFDFD" transform="translate(1067,462)"/>
<path d="M0 0 C6.001875 -0.0928125 6.001875 -0.0928125 12.125 -0.1875 C13.37555176 -0.21481201 14.62610352 -0.24212402 15.91455078 -0.27026367 C26.23369796 -0.34756999 26.23369796 -0.34756999 31 3 C33.25 5.4375 33.25 5.4375 35 8 C35.4125 8.598125 35.825 9.19625 36.25 9.8125 C37.91785687 14.67708255 37.33460074 18.90325312 35.875 23.6875 C33.52655159 27.83642553 30.85211874 31.02796219 26.16113281 32.62670898 C23.52668652 33.08175512 21.03328934 33.1118792 18.359375 33.09765625 C17.39483398 33.09515869 16.43029297 33.09266113 15.43652344 33.09008789 C13.61169434 33.07643188 13.61169434 33.07643188 11.75 33.0625 C7.8725 33.041875 3.995 33.02125 0 33 C0 22.11 0 11.22 0 0 Z " fill="#FBFCFC" transform="translate(594,462)"/>
<path d="M0 0 C4.91373952 2.24135487 7.51532142 5.22177197 10 10 C10 11.98 10 13.96 10 16 C-1.22 16 -12.44 16 -24 16 C-22.8826417 9.29585017 -21.35235762 6.29204076 -16.5625 1.625 C-11.10238421 -0.86557913 -5.90088116 -0.73667051 0 0 Z " fill="#F0F2F4" transform="translate(703,487)"/>
<path d="M0 0 C3.05992005 1.61656154 5.24119476 3.0762371 7.4375 5.75 C8.32033086 9.28132343 7.96751695 12.54164155 7 16 C5.17890734 18.76101146 3.95798903 20.52100548 1 22 C-4.34243433 22.35032356 -7.64786539 22.4561069 -12 19 C-14.68121076 14.97818385 -14.81344335 11.72763609 -14 7 C-10.58559026 0.86929404 -6.81115864 -0.56759655 0 0 Z " fill="#0B2343" transform="translate(970,442)"/>
<path d="M0 0 C0.66 0.33 1.32 0.66 2 1 C1.360625 1.78375 0.72125 2.5675 0.0625 3.375 C-2.67205697 6.85534523 -3.1290061 8.47777553 -3.20532227 12.81689453 C-3.22526749 13.81778107 -3.24521271 14.8186676 -3.26576233 15.84988403 C-3.29083107 17.47493362 -3.29083107 17.47493362 -3.31640625 19.1328125 C-3.33718735 20.23978485 -3.35796844 21.3467572 -3.37937927 22.48727417 C-3.44490991 26.03311799 -3.50377614 29.57903754 -3.5625 33.125 C-3.60568187 35.5247475 -3.64929605 37.92448727 -3.69335938 40.32421875 C-3.80059492 46.21606767 -3.90185248 52.10799297 -4 58 C-9.94 58 -15.88 58 -22 58 C-22 57.34 -22 56.68 -22 56 C-16.72 56 -11.44 56 -6 56 C-6.02094727 54.64841797 -6.04189453 53.29683594 -6.06347656 51.90429688 C-6.13615956 46.86501764 -6.1819027 41.82578429 -6.21972656 36.78613281 C-6.23977764 34.60962112 -6.26702571 32.43316286 -6.30175781 30.25683594 C-6.35056212 27.11900607 -6.37303438 23.98189165 -6.390625 20.84375 C-6.41127014 19.87884644 -6.43191528 18.91394287 -6.45318604 17.9197998 C-6.45521421 11.74142923 -5.49205179 7.16939052 -2 2 C-1.34 1.34 -0.68 0.68 0 0 Z " fill="#10203F" transform="translate(1156,491)"/>
<path d="M0 0 C0.33 0 0.66 0 1 0 C1 24.09 1 48.18 1 73 C6.28 73 11.56 73 17 73 C17 73.66 17 74.32 17 75 C11.06 75 5.12 75 -1 75 C-0.67 50.25 -0.34 25.5 0 0 Z " fill="#02173B" transform="translate(958,474)"/>
<path d="M0 0 C0.99 0 1.98 0 3 0 C3.33 0.99 3.66 1.98 4 3 C3.67 3.33 3.34 3.66 3 4 C2.76298761 6.85877909 2.57780818 9.69883297 2.4375 12.5625 C2.39431641 13.36880859 2.35113281 14.17511719 2.30664062 15.00585938 C2.20024738 17.00368805 2.09959112 19.0018207 2 21 C1.34 21.33 0.68 21.66 0 22 C-1.15609232 18.53172305 -1.13272398 15.7784416 -1.125 12.125 C-1.12757813 10.91070312 -1.13015625 9.69640625 -1.1328125 8.4453125 C-1.01884298 5.48880905 -0.68703101 2.86808185 0 0 Z " fill="#232E47" transform="translate(660,498)"/>
<path d="M0 0 C3.38818502 1.43605193 5.3186598 3.20466579 7.6875 6 C8.28949219 6.70125 8.89148438 7.4025 9.51171875 8.125 C12.68706021 12.12543019 12.51144551 16.05602678 12 21 C10.5 24.0625 10.5 24.0625 9 26 C8.34 25.67 7.68 25.34 7 25 C7.33 24.67 7.66 24.34 8 24 C9.70691031 16.02778897 9.70691031 16.02778897 7.57421875 8.46484375 C5.80695609 6.50731679 3.95816814 4.76278551 2 3 C1.34 2.01 0.68 1.02 0 0 Z " fill="#091733" transform="translate(550,602)"/>
<path d="M0 0 C0 0.66 0 1.32 0 2 C-7.59 2 -15.18 2 -23 2 C-23 1.34 -23 0.68 -23 0 C-19.54210946 -0.19635974 -16.08367803 -0.38058252 -12.625 -0.5625 C-11.64015625 -0.61857422 -10.6553125 -0.67464844 -9.640625 -0.73242188 C-8.69960938 -0.78076172 -7.75859375 -0.82910156 -6.7890625 -0.87890625 C-5.48509521 -0.94960327 -5.48509521 -0.94960327 -4.15478516 -1.02172852 C-2 -1 -2 -1 0 0 Z " fill="#051535" transform="translate(655,547)"/>
<path d="M0 0 C0.33 0 0.66 0 1 0 C1 6.6 1 13.2 1 20 C6.61 20 12.22 20 18 20 C18 20.33 18 20.66 18 21 C15.02111874 21.1938211 12.04209754 21.38035102 9.0625 21.5625 C8.21236328 21.61857422 7.36222656 21.67464844 6.48632812 21.73242188 C5.67744141 21.78076172 4.86855469 21.82910156 4.03515625 21.87890625 C3.2862915 21.9260376 2.53742676 21.97316895 1.76586914 22.02172852 C0 22 0 22 -1 21 C-1.01665074 19.43576568 -0.96308892 17.87064994 -0.87890625 16.30859375 C-0.80639648 14.89223633 -0.80639648 14.89223633 -0.73242188 13.44726562 C-0.67634766 12.45404297 -0.62027344 11.46082031 -0.5625 10.4375 C-0.51029297 9.44041016 -0.45808594 8.44332031 -0.40429688 7.41601562 C-0.2741763 4.94372478 -0.13919819 2.4717937 0 0 Z " fill="#455B75" transform="translate(1014,452)"/>
<path d="M0 0 C1.29222745 3.87668235 0.64738884 5.62905894 -1.0625 9.25 C-1.371875 9.8275 -1.68125 10.405 -2 11 C-3.32 10.67 -4.64 10.34 -6 10 C-4.02 6.7 -2.04 3.4 0 0 Z " fill="#12223F" transform="translate(499,521)"/>
<path d="M0 0 C0.99 0 1.98 0 3 0 C3.33 0.99 3.66 1.98 4 3 C3.67 3.33 3.34 3.66 3 4 C2.76298761 6.85877909 2.57780818 9.69883297 2.4375 12.5625 C2.39431641 13.36880859 2.35113281 14.17511719 2.30664062 15.00585938 C2.20024738 17.00368805 2.09959112 19.0018207 2 21 C1.67 21 1.34 21 1 21 C0.67 14.07 0.34 7.14 0 0 Z " fill="#143152" transform="translate(660,498)"/>
<path d="M0 0 C0.33 0.66 0.66 1.32 1 2 C1.66 2.33 2.32 2.66 3 3 C2.38125 3.165 1.7625 3.33 1.125 3.5 C-2.27756949 5.90181375 -2.22612026 9.00162134 -3 13 C-3.33 13 -3.66 13 -4 13 C-3.55966813 7.80408388 -3.11696661 4.33664919 0 0 Z " fill="#0E1C37" transform="translate(385,436)"/>
<path d="M0 0 C4.21912747 0.4794463 6.79663178 1.16625119 10 4 C7.69 4 5.38 4 3 4 C2.67 3.01 2.34 2.02 2 1 C1.34 0.67 0.68 0.34 0 0 Z " fill="#0B1733" transform="translate(461,518)"/>
</svg>
